<svg xmlns="http://www.w3.org/2000/svg" xmlns:xlink="http://www.w3.org/1999/xlink" viewBox="0 0 37.17 40.26"><defs><style>.cls-1,.cls-3,.cls-4{fill:none;}.cls-2{clip-path:url(#clip-path);}.cls-3,.cls-4{stroke:#231f20;stroke-linecap:round;stroke-linejoin:round;}.cls-3{stroke-width:1.76px;}.cls-4{stroke-width:1.76px;}</style><clipPath id="clip-path" transform="translate(-0.8 -2.15)"><rect class="cls-1" width="43.01" height="45.35"/></clipPath></defs><title>alert</title><g id="Layer_2" data-name="Layer 2"><g id="Layer_2-2" data-name="Layer 2"><g class="cls-2"><g id="Mask_Group_24" data-name="Mask Group 24"><g id="warning-16"><path id="Path_854" data-name="Path 854" class="cls-3" d="M26.14,27.32a10.16,10.16,0,0,0,1.4,3.2l2.06,3.15A.83.83,0,0,1,28.9,35H2.52a.84.84,0,0,1-.84-.83.8.8,0,0,1,.13-.46l2.07-3.15a10.36,10.36,0,0,0,1.71-5.71V16.18a10.31,10.31,0,0,1,9.64-10.4,10.08,10.08,0,0,1,8,3.38" transform="translate(-0.8 -2.15)"/><path id="Path_855" data-name="Path 855" class="cls-3" d="M22.1,35H9.31v.17a6.41,6.41,0,0,0,6.4,6.4h0a6.4,6.4,0,0,0,6.39-6.4Z" transform="translate(-0.8 -2.15)"/><path id="Path_856" data-name="Path 856" class="cls-3" d="M12.44,6.33v0A3.26,3.26,0,0,1,15.7,3h0A3.27,3.27,0,0,1,19,6.3h0" transform="translate(-0.8 -2.15)"/><circle id="Ellipse_51" data-name="Ellipse 51" class="cls-4" cx="26.68" cy="15.65" r="9.61"/><path id="Path_857" data-name="Path 857" class="cls-3" d="M27.4,20.11s-2.75-8.69,0-8.83C30.49,11.13,27.4,20.11,27.4,20.11Z" transform="translate(-0.8 -2.15)"/><circle id="Ellipse_52" data-name="Ellipse 52" class="cls-3" cx="26.68" cy="21.4" r="1.23"/></g></g></g></g></g></svg>