<svg xmlns="http://www.w3.org/2000/svg" width="49.18" height="57.377" viewBox="0 0 49.18 57.377">
  <g id="Business_Startup-05" data-name="Business Startup-05" transform="translate(-7.41 -3.49)">
    <path id="Path_207" data-name="Path 207" d="M45.28,20.18a16.515,16.515,0,1,1-5.73-7.67" fill="none" stroke="#231f20" stroke-linecap="round" stroke-linejoin="round" stroke-miterlimit="10" stroke-width="2"/>
    <path id="Path_208" data-name="Path 208" d="M41.01,23.42v.01a11.009,11.009,0,0,1,.26,2.39,11.491,11.491,0,1,1-5.71-9.95" fill="none" stroke="#231f20" stroke-linecap="round" stroke-linejoin="round" stroke-miterlimit="10" stroke-width="2"/>
    <path id="Path_209" data-name="Path 209" d="M31.07,19.62a6.278,6.278,0,0,0-1.32-.15,6.35,6.35,0,1,0,6.15,7.84" fill="none" stroke="#231f20" stroke-linecap="round" stroke-linejoin="round" stroke-miterlimit="10" stroke-width="2"/>
    <path id="Path_210" data-name="Path 210" d="M49.25,17.16a21.088,21.088,0,0,1,1.84,8.67A21.336,21.336,0,1,1,43.31,9.35" fill="none" stroke="#231f20" stroke-linecap="round" stroke-linejoin="round" stroke-miterlimit="10" stroke-width="2"/>
    <line id="Line_24" data-name="Line 24" x1="22.52" y2="18.22" transform="translate(28.84 8.34)" fill="none" stroke="#231f20" stroke-linecap="round" stroke-linejoin="round" stroke-miterlimit="10" stroke-width="2"/>
    <path id="Path_211" data-name="Path 211" d="M31.04,22.07l-2.2,4.49,5.06-1.01" fill="none" stroke="#231f20" stroke-linecap="round" stroke-linejoin="round" stroke-miterlimit="10" stroke-width="2"/>
    <path id="Path_212" data-name="Path 212" d="M51.36,8.34l.29-3.85L47.43,8.02l.24,3.3,3.39.85,4.53-3.65Z" fill="none" stroke="#231f20" stroke-linecap="round" stroke-linejoin="round" stroke-miterlimit="10" stroke-width="2"/>
    <line id="Line_25" data-name="Line 25" x1="6.9" y2="13.4" transform="translate(16.24 46.12)" fill="none" stroke="#231f20" stroke-linecap="round" stroke-linejoin="round" stroke-miterlimit="10" stroke-width="2"/>
    <line id="Line_26" data-name="Line 26" x1="6.7" y1="13.01" transform="translate(34.98 46.51)" fill="none" stroke="#231f20" stroke-linecap="round" stroke-linejoin="round" stroke-miterlimit="10" stroke-width="2"/>
    <line id="Line_27" data-name="Line 27" x1="16.63" transform="translate(20.65 50.96)" fill="none" stroke="#231f20" stroke-linecap="round" stroke-linejoin="round" stroke-miterlimit="10" stroke-width="2"/>
    <line id="Line_28" data-name="Line 28" x2="19.98" transform="translate(18.97 54.22)" fill="none" stroke="#231f20" stroke-linecap="round" stroke-linejoin="round" stroke-miterlimit="10" stroke-width="2"/>
  </g>
</svg>
