<svg xmlns="http://www.w3.org/2000/svg" viewBox="0 0 56.69 46.23"><defs><style>.cls-1{stroke:#707070;stroke-width:0.88px;}</style></defs><title>calender</title><g id="Layer_2" data-name="Layer 2"><g id="Layer_2-2" data-name="Layer 2"><g id="Mask_Group_11" data-name="Mask Group 11"><g id="Layer_23" data-name="Layer 23"><path id="Path_775" data-name="Path 775" class="cls-1" d="M53.64,2.19H49.23a2.18,2.18,0,0,0-4.27,0H43.13A2.18,2.18,0,0,0,40.56.48a2.21,2.21,0,0,0-1.71,1.71h-21A2.18,2.18,0,0,0,15.27.48a2.21,2.21,0,0,0-1.71,1.71H11.73a2.18,2.18,0,0,0-4.27,0H3.05A2.61,2.61,0,0,0,.44,4.8V43.18a2.61,2.61,0,0,0,2.61,2.61H53.64a2.61,2.61,0,0,0,2.61-2.61V4.8A2.61,2.61,0,0,0,53.64,2.19ZM4.8,40.56a2.62,2.62,0,0,1-2.62-2.62h0v-27H54.51V29.22c0,2.23-2.3,3.6-4.36,4.12V15.27a.87.87,0,0,0-.87-.87H7.41a.87.87,0,0,0-.87.87V36.2a.87.87,0,0,0,.87.87H47c-.65,1.79-1.93,3.49-3.85,3.49Zm36.63-5.23H36.19V30.09h5.24Zm-7,0H29.22V30.09h5.23Zm-7,0H22.24V30.09h5.23Zm-7,0H15.26V30.09H20.5Zm-7,0H8.29V30.09h5.23Zm1.74-19.19H20.5v5.23H15.26Zm7,0h5.23v5.23H22.24Zm7,0h5.23v5.23H29.22Zm7,0h5.24v5.23H36.19Zm7,0H48.4v5.23H43.17Zm-34.88,7h5.23v5.23H8.29Zm7,0H20.5v5.23H15.26Zm7,0h5.23v5.23H22.24Zm7,0h5.23v5.23H29.22Zm7,0h5.24v5.23H36.19Zm7,0H48.4v5.23H43.17ZM13.52,21.37H8.29V16.14h5.23Zm29.65,8.72H48.4v3.49a.87.87,0,0,0-.87.87,6.4,6.4,0,0,1-.06.88h-4.3Zm6.06,5.19a9.65,9.65,0,0,0,5-2.06,9.62,9.62,0,0,1-7.06,7.06,9.6,9.6,0,0,0,2.06-5ZM46.66,2.62a.44.44,0,0,1,.87,0V5.24a.43.43,0,0,1-.45.41.43.43,0,0,1-.42-.41Zm-6.1,0A.42.42,0,0,1,41,2.21a.43.43,0,0,1,.42.41V5.24a.44.44,0,0,1-.87,0Zm-25.3,0a.44.44,0,0,1,.88,0V5.24a.44.44,0,0,1-.46.41.43.43,0,0,1-.42-.41Zm-6.1,0a.42.42,0,0,1,.46-.41.43.43,0,0,1,.41.41V5.24a.44.44,0,0,1-.87,0Zm-7,2.18a.87.87,0,0,1,.87-.87H7.41V5.24a2.19,2.19,0,0,0,4.37,0V3.93h1.74V5.24a2.18,2.18,0,0,0,4.36,0V3.93H38.81V5.24a2.18,2.18,0,0,0,4.36,0V3.93h1.75V5.24a2.18,2.18,0,0,0,4.36,0V3.93h4.36a.87.87,0,0,1,.87.87V9.16H2.18ZM54.51,43.18a.87.87,0,0,1-.87.87H3.05a.87.87,0,0,1-.87-.87V41.41a4.35,4.35,0,0,0,2.62.9H44.92A11.35,11.35,0,0,0,54.51,37Z"/></g></g></g></g></svg>