<svg xmlns="http://www.w3.org/2000/svg" xmlns:xlink="http://www.w3.org/1999/xlink" width="61" height="56" viewBox="0 0 61 56">
  <defs>
    <clipPath id="clip-path">
      <rect id="Rectangle_189" data-name="Rectangle 189" width="61" height="56" transform="translate(798 482)" fill="#fff" stroke="#707070" stroke-width="1"/>
    </clipPath>
  </defs>
  <g id="Mask_Group_10" data-name="Mask Group 10" transform="translate(-798 -482)" clip-path="url(#clip-path)">
    <g id="_10441_-_Micro_learning" data-name="10441 - Micro learning" transform="translate(802.274 482)">
      <g id="Group_156" data-name="Group 156" transform="translate(21.497 44.764)">
        <path id="Path_746" data-name="Path 746" d="M27.574,51.516a.847.847,0,0,1-.217-.028.876.876,0,0,1-.615-1.067L28.1,45.092a.858.858,0,0,1,1.049-.626.876.876,0,0,1,.615,1.067L28.4,50.862A.863.863,0,0,1,27.574,51.516Z" transform="translate(-26.713 -44.437)" fill="#212121" stroke="#707070" stroke-width="0.03"/>
        <path id="Path_747" data-name="Path 747" d="M34.265,51.516a.863.863,0,0,1-.831-.655L32.07,45.533a.876.876,0,0,1,.615-1.067.859.859,0,0,1,1.049.626L35.1,50.421a.876.876,0,0,1-.615,1.067A.848.848,0,0,1,34.265,51.516Z" transform="translate(-25.668 -44.437)" fill="#212121" stroke="#707070" stroke-width="0.03"/>
      </g>
      <path id="Path_748" data-name="Path 748" d="M43.276,54.721H21.851a.867.867,0,0,1-.86-.875,4.994,4.994,0,0,1,4.944-5.032H39.193a4.994,4.994,0,0,1,4.943,5.032A.867.867,0,0,1,43.276,54.721Zm-20.449-1.75H42.3a3.239,3.239,0,0,0-3.107-2.407H25.936A3.24,3.24,0,0,0,22.827,52.971Z" transform="translate(-6.338 1.279)" fill="#212121" stroke="#707070" stroke-width="0.03"/>
      <path id="Path_749" data-name="Path 749" d="M58.969,52.539H10.963A2.246,2.246,0,0,1,8.74,50.277v-32.8a2.246,2.246,0,0,1,2.223-2.263h15.33a.875.875,0,0,1,0,1.75H10.963a.509.509,0,0,0-.5.513v32.8a.509.509,0,0,0,.5.513H58.969a.509.509,0,0,0,.5-.513v-32.8a.509.509,0,0,0-.5-.513H44.032a.875.875,0,0,1,0-1.75H58.969a2.246,2.246,0,0,1,2.223,2.263v32.8A2.246,2.246,0,0,1,58.969,52.539Z" transform="translate(-8.74 -6.026)" fill="#212121" stroke="#707070" stroke-width="0.03"/>
      <path id="Path_750" data-name="Path 750" d="M60.332,41.574H9.6a.875.875,0,0,1,0-1.75H60.332a.875.875,0,0,1,0,1.75Z" transform="translate(-8.74 -0.676)" fill="#212121" stroke="#707070" stroke-width="0.03"/>
      <g id="Group_168" data-name="Group 168" transform="translate(5.476)">
        <g id="Group_166" data-name="Group 166" transform="translate(0 14.636)">
          <g id="Group_158" data-name="Group 158" transform="translate(6.036 0.24)">
            <path id="Path_751" data-name="Path 751" d="M36.916,34.909a4.879,4.879,0,0,1-2.97-1.014,4.865,4.865,0,0,1-6.841-.9,4.848,4.848,0,0,1-1.917.393,4.9,4.9,0,0,1-4.878-4.666,4.918,4.918,0,0,1,2.938-8.836H43.079a4.918,4.918,0,0,1,2.938,8.836,4.883,4.883,0,0,1-5.527,4.623A4.9,4.9,0,0,1,36.916,34.909Zm-2.97-3.063a.853.853,0,0,1,.63.28,3.166,3.166,0,0,0,4.892-.259.852.852,0,0,1,.895-.325,3.167,3.167,0,0,0,3.94-3.066c0-.056,0-.112,0-.173a.879.879,0,0,1,.419-.8,3.162,3.162,0,0,0-1.638-5.868H23.249A3.162,3.162,0,0,0,21.611,27.5a.879.879,0,0,1,.419.8c0,.059,0,.117,0,.172a3.165,3.165,0,0,0,4.908,2.64A.847.847,0,0,1,27.618,31a.862.862,0,0,1,.544.44,3.166,3.166,0,0,0,5.155.683A.853.853,0,0,1,33.947,31.846Z" transform="translate(-18.365 -19.886)" fill="#212121" stroke="#707070" stroke-width="0.03"/>
            <g id="Group_157" data-name="Group 157" transform="translate(1.964 4.256)">
              <path id="Path_752" data-name="Path 752" d="M24.212,32.2a.875.875,0,0,1,0-1.75,3.165,3.165,0,0,0,3.052-4,.877.877,0,0,1,.6-1.079.858.858,0,0,1,1.06.606A4.919,4.919,0,0,1,24.212,32.2Z" transform="translate(-19.351 -22.957)" fill="#212121" stroke="#707070" stroke-width="0.03"/>
              <path id="Path_753" data-name="Path 753" d="M39.827,28.95A4.894,4.894,0,0,1,34.95,24.3a.86.86,0,1,1,1.717-.095,3.166,3.166,0,0,0,4.766,2.554.851.851,0,0,1,1.175.318.884.884,0,0,1-.313,1.2A4.859,4.859,0,0,1,39.827,28.95Z" transform="translate(-17.077 -23.382)" fill="#212121" stroke="#707070" stroke-width="0.03"/>
              <path id="Path_754" data-name="Path 754" d="M38.206,32.01A4.9,4.9,0,0,1,33.322,27.1a.86.86,0,1,1,1.719,0,3.167,3.167,0,0,0,3.165,3.162.875.875,0,0,1,0,1.75Z" transform="translate(-17.396 -22.764)" fill="#212121" stroke="#707070" stroke-width="0.03"/>
              <path id="Path_755" data-name="Path 755" d="M31.533,31.947a.848.848,0,0,1-.585-.234.886.886,0,0,1-.045-1.237,3.153,3.153,0,0,0,.825-2.129.86.86,0,1,1,1.719,0,4.915,4.915,0,0,1-1.284,3.319A.85.85,0,0,1,31.533,31.947Z" transform="translate(-17.916 -22.492)" fill="#212121" stroke="#707070" stroke-width="0.03"/>
              <path id="Path_756" data-name="Path 756" d="M22.9,28.367a4.86,4.86,0,0,1-2.468-.673.884.884,0,0,1-.313-1.2A.852.852,0,0,1,21.3,26.18a3.176,3.176,0,0,0,2.916.154.854.854,0,0,1,1.136.442.881.881,0,0,1-.434,1.156A4.826,4.826,0,0,1,22.9,28.367Z" transform="translate(-20.007 -22.799)" fill="#212121" stroke="#707070" stroke-width="0.03"/>
            </g>
          </g>
          <g id="Group_159" data-name="Group 159" transform="translate(32.849)">
            <path id="Path_757" data-name="Path 757" d="M45.429,22.7H41.642a.875.875,0,0,1,0-1.75h3.787a.875.875,0,0,1,0,1.75Z" transform="translate(-40.782 -19.414)" fill="#212121" stroke="#707070" stroke-width="0.03"/>
            <path id="Path_758" data-name="Path 758" d="M46.4,24.52A2.415,2.415,0,1,1,48.8,22.1,2.408,2.408,0,0,1,46.4,24.52Zm0-3.081a.665.665,0,1,0,.676.665A.671.671,0,0,0,46.4,21.439Z" transform="translate(-40.149 -19.689)" fill="#212121" stroke="#707070" stroke-width="0.03"/>
          </g>
          <g id="Group_160" data-name="Group 160" transform="translate(0.201 7.759)">
            <path id="Path_759" data-name="Path 759" d="M18.951,30.163H17.124a.875.875,0,0,1,0-1.75h1.505l2.407-2.135a.849.849,0,0,1,1.213.085.886.886,0,0,1-.083,1.235l-2.65,2.35A.851.851,0,0,1,18.951,30.163Z" transform="translate(-12.941 -26.062)" fill="#212121" stroke="#707070" stroke-width="0.03"/>
            <path id="Path_760" data-name="Path 760" d="M15.881,31.558a2.415,2.415,0,1,1,2.4-2.415A2.408,2.408,0,0,1,15.881,31.558Zm0-3.081a.665.665,0,1,0,.676.665A.671.671,0,0,0,15.881,28.478Z" transform="translate(-13.486 -25.918)" fill="#212121" stroke="#707070" stroke-width="0.03"/>
          </g>
          <g id="Group_161" data-name="Group 161" transform="translate(31.927 7.759)">
            <path id="Path_761" data-name="Path 761" d="M45.348,30.163H43.521a.851.851,0,0,1-.565-.215l-2.65-2.35a.886.886,0,0,1-.083-1.235.849.849,0,0,1,1.213-.085l2.407,2.135h1.505a.875.875,0,0,1,0,1.75Z" transform="translate(-40.012 -26.062)" fill="#212121" stroke="#707070" stroke-width="0.03"/>
            <path id="Path_762" data-name="Path 762" d="M46.174,31.558a2.415,2.415,0,1,1,2.4-2.415A2.408,2.408,0,0,1,46.174,31.558Zm0-3.081a.665.665,0,1,0,.676.665A.671.671,0,0,0,46.174,28.478Z" transform="translate(-39.273 -25.918)" fill="#212121" stroke="#707070" stroke-width="0.03"/>
          </g>
          <g id="Group_162" data-name="Group 162" transform="translate(26.968 11.871)">
            <path id="Path_763" data-name="Path 763" d="M39.414,34.441a.843.843,0,0,1-.36-.081L37.4,33.582a.868.868,0,0,1-.43-.451l-1.035-2.473a.881.881,0,0,1,.454-1.148.854.854,0,0,1,1.128.462l.905,2.163,1.354.637a.882.882,0,0,1,.42,1.161A.859.859,0,0,1,39.414,34.441Z" transform="translate(-35.865 -29.44)" fill="#212121" stroke="#707070" stroke-width="0.03"/>
            <path id="Path_764" data-name="Path 764" d="M40.478,36.054a2.415,2.415,0,1,1,2.4-2.415A2.408,2.408,0,0,1,40.478,36.054Zm0-3.081a.665.665,0,1,0,.676.665A.671.671,0,0,0,40.478,32.973Z" transform="translate(-35.431 -29.052)" fill="#212121" stroke="#707070" stroke-width="0.03"/>
          </g>
          <g id="Group_163" data-name="Group 163" transform="translate(8.742 11.871)">
            <path id="Path_765" data-name="Path 765" d="M24.059,34.441a.859.859,0,0,1-.781-.508.882.882,0,0,1,.42-1.161l1.354-.637.905-2.163a.854.854,0,0,1,1.128-.462.881.881,0,0,1,.454,1.148L26.5,33.131a.868.868,0,0,1-.43.451l-1.654.778A.843.843,0,0,1,24.059,34.441Z" transform="translate(-20.123 -29.44)" fill="#212121" stroke="#707070" stroke-width="0.03"/>
            <path id="Path_766" data-name="Path 766" d="M23.022,35.949a2.415,2.415,0,1,1,2.4-2.415A2.408,2.408,0,0,1,23.022,35.949Zm0-3.081a.665.665,0,1,0,.676.665A.671.671,0,0,0,23.022,32.868Z" transform="translate(-20.627 -29.075)" fill="#212121" stroke="#707070" stroke-width="0.03"/>
          </g>
          <g id="Group_164" data-name="Group 164" transform="translate(19.221 12.47)">
            <path id="Path_767" data-name="Path 767" d="M31.532,36.144a.867.867,0,0,1-.86-.875V30.807a.86.86,0,1,1,1.719,0v4.462A.867.867,0,0,1,31.532,36.144Z" transform="translate(-29.137 -29.932)" fill="#212121" stroke="#707070" stroke-width="0.03"/>
            <path id="Path_768" data-name="Path 768" d="M31.784,38.555a2.415,2.415,0,1,1,2.4-2.415A2.408,2.408,0,0,1,31.784,38.555Zm0-3.081a.665.665,0,1,0,.676.665A.671.671,0,0,0,31.784,35.474Z" transform="translate(-29.389 -29.108)" fill="#212121" stroke="#707070" stroke-width="0.03"/>
          </g>
          <g id="Group_165" data-name="Group 165">
            <path id="Path_769" data-name="Path 769" d="M20.708,22.7H16.921a.875.875,0,0,1,0-1.75h3.787a.875.875,0,0,1,0,1.75Z" transform="translate(-12.781 -19.414)" fill="#212121" stroke="#707070" stroke-width="0.03"/>
            <path id="Path_770" data-name="Path 770" d="M15.714,24.52a2.415,2.415,0,1,1,2.4-2.415A2.408,2.408,0,0,1,15.714,24.52Zm0-3.081a.665.665,0,1,0,.676.665A.671.671,0,0,0,15.714,21.439Z" transform="translate(-13.318 -19.689)" fill="#212121" stroke="#707070" stroke-width="0.03"/>
          </g>
        </g>
        <g id="Group_167" data-name="Group 167" transform="translate(4.602)">
          <path id="Path_771" data-name="Path 771" d="M33.51,18.115a.844.844,0,0,1-.209-.026L17.816,14.131a.879.879,0,0,1-.039-1.686L33.242,7.7a.846.846,0,0,1,.467-.008l14.669,3.932a.879.879,0,0,1,.043,1.68L33.772,18.073A.845.845,0,0,1,33.51,18.115ZM21.256,13.205,33.482,16.33l11.6-3.776-11.581-3.1Z" transform="translate(-17.166 -7.667)" fill="#212121" stroke="#707070" stroke-width="0.03"/>
          <path id="Path_772" data-name="Path 772" d="M23.557,22.406a.867.867,0,0,1-.86-.875V13.824a.86.86,0,1,1,1.719,0v7.707A.867.867,0,0,1,23.557,22.406Z" transform="translate(-16.082 -6.518)" fill="#212121" stroke="#707070" stroke-width="0.03"/>
          <path id="Path_773" data-name="Path 773" d="M38.387,22.415a.867.867,0,0,1-.86-.875V13.785a.86.86,0,1,1,1.719,0V21.54A.867.867,0,0,1,38.387,22.415Z" transform="translate(-13.174 -6.527)" fill="#212121" stroke="#707070" stroke-width="0.03"/>
          <path id="Path_774" data-name="Path 774" d="M30.831,23.368" transform="translate(-14.487 -4.253)" fill="none" stroke="#212121" stroke-linecap="round" stroke-linejoin="round" stroke-miterlimit="10" stroke-width="1.437"/>
        </g>
      </g>
    </g>
  </g>
</svg>
